<svg width="20" height="23" viewBox="0 0 20 23" fill="none" xmlns="http://www.w3.org/2000/svg">
<path fill-rule="evenodd" clip-rule="evenodd" d="M9.6197 0C14.1615 0 17.8568 3.69531 17.8568 8.23711C17.8568 12.7832 14.1572 16.4742 9.61541 16.4742C5.07361 16.4742 1.3783 12.7789 1.3783 8.23711C1.3783 3.69531 5.07791 0 9.6197 0ZM12.9068 9.30703L14.7072 7.15859C14.849 6.99102 14.8963 6.75469 14.8275 6.54414C14.7588 6.33359 14.5869 6.17461 14.372 6.11875L11.6521 5.43984L10.1654 3.06367C10.0494 2.87891 9.84314 2.76289 9.6197 2.76289C9.39626 2.76289 9.19001 2.87461 9.074 3.06367L7.58728 5.43984L4.86736 6.11875C4.65251 6.17031 4.48064 6.33359 4.41189 6.54414C4.34314 6.75469 4.39041 6.98672 4.5322 7.15859L6.33259 9.30703L6.13923 12.1043C6.12205 12.3277 6.22087 12.5426 6.40134 12.6715C6.67205 12.8691 6.95134 12.7789 7.02009 12.7488L9.6197 11.7004L12.2193 12.7488C12.4256 12.8305 12.6576 12.8004 12.8381 12.6715C13.0142 12.5383 13.1174 12.3277 13.1002 12.1043L12.9068 9.30703ZM10.6982 6.34219L9.61971 4.61914L8.5412 6.34219C8.45096 6.48398 8.31346 6.58711 8.15018 6.62578L6.17792 7.11992L7.48417 8.67969C7.59159 8.80859 7.64315 8.97188 7.63456 9.13945L7.49276 11.1676L9.37909 10.407C9.46932 10.3727 9.65409 10.3211 9.86034 10.407L11.7467 11.1676L11.6049 9.13945C11.592 8.97188 11.6478 8.80859 11.7553 8.67969L13.0615 7.11992L11.0849 6.62578C10.926 6.58711 10.7842 6.48398 10.6982 6.34219ZM0.0677788 18.3047L2.14747 14.1453C3.71583 16.1262 6.05333 17.4711 8.7045 17.7203L6.74512 21.6434C6.64629 21.841 6.43575 22 6.16934 22C5.96739 22 5.77403 21.9055 5.65372 21.7422L3.77598 19.2371H0.647857C0.424419 19.2371 0.213873 19.1211 0.097857 18.932C-0.0224555 18.743 -0.0310493 18.5067 0.0677788 18.3047ZM17.0877 14.1453L19.1674 18.3047C19.2705 18.5067 19.2576 18.743 19.1373 18.9363C19.017 19.1254 18.8107 19.2414 18.5873 19.2414H15.4592L13.5814 21.7465C13.4611 21.9098 13.2677 22.0043 13.0658 22.0043C12.7994 22.0043 12.5888 21.8453 12.49 21.6477L10.5306 17.7246C13.1818 17.4711 15.5193 16.1262 17.0877 14.1453Z" fill="url(#paint0_linear)"/>
<defs>
<linearGradient id="paint0_linear" x1="19.2369" y1="-3.08302" x2="0.921779" y2="20.4259" gradientUnits="userSpaceOnUse">
<stop stop-color="#FFD646"/>
<stop offset="1" stop-color="#E8A900"/>
</linearGradient>
</defs>
</svg>
