<svg width="18" height="15" viewBox="0 0 18 15" fill="none" xmlns="http://www.w3.org/2000/svg">
<path d="M16.9882 6.06381L17.0163 6.06995H4.97152L8.75796 2.27517C8.94337 2.0899 9.04508 1.83893 9.04508 1.57551C9.04508 1.3121 8.94337 1.06288 8.75796 0.877171L8.16879 0.287707C7.98352 0.102439 7.73664 0 7.47337 0C7.20996 0 6.96293 0.101707 6.77766 0.286976L0.28698 6.77707C0.10098 6.96307 -0.000727787 7.21083 3.92069e-06 7.47439C-0.000727787 7.73942 0.10098 7.98732 0.28698 8.17303L6.77766 14.6637C6.96293 14.8488 7.20981 14.9507 7.47337 14.9507C7.73664 14.9507 7.98352 14.8487 8.16879 14.6637L8.75796 14.0742C8.94337 13.8893 9.04508 13.6422 9.04508 13.3788C9.04508 13.1156 8.94337 12.8816 8.75796 12.6964L4.92878 8.88044H17.0017C17.5442 8.88044 18 8.41288 18 7.87068V7.03698C18 6.49478 17.5307 6.06381 16.9882 6.06381Z" fill="white"/>
</svg>
