<svg width="26" height="33" viewBox="0 0 26 33" fill="none" xmlns="http://www.w3.org/2000/svg">
<path d="M8.34299 7.78856L3.65892 1.76928C3.65892 1.76928 3.76695 0.6782 6.79171 0.782987C9.81648 0.887773 14.1894 0.0710863 17.023 0.0062699C20.2962 -0.068269 23.5435 0.546407 23.5435 0.546407L18.6488 7.78424L8.34299 7.78856Z" fill="white"/>
<path d="M8.34299 7.78874L3.65892 1.76946C3.65892 1.76946 3.76695 -0.0940136 6.79171 0.0118532C9.81648 0.11772 13.0389 1.41621 15.866 1.55016C19.9192 1.73921 23.5446 0.546588 23.5446 0.546588L18.6499 7.78442L8.34299 7.78874Z" fill="url(#paint0_linear)"/>
<path d="M24.6012 18.8555C23.0963 15.1566 20.7824 11.2936 18.6488 7.7881H8.34304C6.23327 11.2903 4.10513 15.2053 2.43827 18.8555C-1.11691 26.6454 0.9086 29.2132 5.0817 31.0529C8.17668 32.4183 18.8617 32.4183 21.9566 31.0529C26.1297 29.2132 27.1819 25.2032 24.6012 18.8555Z" fill="url(#paint1_linear)"/>
<path fill-rule="evenodd" clip-rule="evenodd" d="M19.1807 18.0392C19.0028 16.1035 17.6151 14.699 15.8784 14.699C15.3089 14.7025 14.7501 14.8518 14.257 15.1324C13.764 15.4129 13.3536 15.815 13.0663 16.299C12.794 15.8167 12.3962 15.4143 11.9139 15.1331C11.4315 14.8519 10.8818 14.702 10.3212 14.6987C8.58521 14.6987 7.19715 16.1041 7.01929 18.0392C6.97379 18.465 7.00894 18.8954 7.12296 19.3086C7.38607 20.3837 7.97532 21.3545 8.81241 22.0921C8.81241 22.0921 11.1198 24.2399 11.8542 24.8179C12.6923 25.4595 13.4102 25.4809 14.2914 24.8197C15.0466 24.2417 17.3876 22.0924 17.3876 22.0924C18.2247 21.3548 18.8138 20.3838 19.0767 19.3086C19.1909 18.8955 19.2262 18.465 19.1807 18.0392Z" fill="white"/>
<path d="M19.6028 8.01248C19.6028 8.21773 19.3964 8.38517 19.1426 8.38517H7.70139C7.44644 8.38517 7.24011 8.21773 7.24011 8.01248V7.70676C7.24011 7.50043 7.44644 7.33407 7.70139 7.33407H19.1426C19.3964 7.33407 19.6028 7.50043 19.6028 7.70676V8.01248Z" fill="white"/>
<defs>
<linearGradient id="paint0_linear" x1="13.6018" y1="0.00750732" x2="13.6018" y2="7.78874" gradientUnits="userSpaceOnUse">
<stop stop-color="#CA6700"/>
<stop offset="1" stop-color="#F7BB49"/>
</linearGradient>
<linearGradient id="paint1_linear" x1="13.3041" y1="7.7881" x2="13.3041" y2="32.077" gradientUnits="userSpaceOnUse">
<stop stop-color="#F7BB49"/>
<stop offset="1" stop-color="#CA6700"/>
</linearGradient>
</defs>
</svg>
