<svg width="20" height="20" viewBox="0 0 20 20" fill="none" xmlns="http://www.w3.org/2000/svg">
<path fill-rule="evenodd" clip-rule="evenodd" d="M4.47446 19.969C3.87697 20.0371 3.49163 20.0621 3.20953 19.2757C2.92744 18.4892 2.10641 16.064 3.79568 14.1536C2.05961 13.9373 0.453564 12.0208 0.151469 10.3198C0.0798062 9.93394 0 9.37126 0 8.94404V3.1546C0.0704646 2.18712 0.560215 2.01502 1.46925 2.63829C2.66022 3.48826 5.16352 5.25751 7.32378 7.27362C7.51621 6.36781 7.86784 5.76903 8.70665 5.42267C8.38926 4.6913 7.51334 2.73189 5.3771 1.81752C4.92707 2.5411 3.76308 2.46133 3.41988 1.7633C3.07668 1.06527 3.33426 0 4.47446 0C5.61466 0 7.77262 0.803132 9.54545 3.63595L9.59875 3.55157C11.3613 0.78715 13.4877 0 14.6165 0C15.7567 0 16.0142 1.06527 15.671 1.7633C15.3278 2.46133 14.1638 2.5411 13.7138 1.81752C11.5776 2.73189 10.7016 4.6913 10.3843 5.42267C11.2231 5.76903 11.5747 6.36781 11.7671 7.27362C13.9274 5.25751 16.4307 3.48826 17.6217 2.63829C18.5307 2.01502 19.0204 2.18712 19.0909 3.1546V8.94404C19.0909 9.37126 19.0111 9.93394 18.9394 10.3198C18.6373 12.0208 17.0313 13.9373 15.2952 14.1536C16.9845 16.064 16.1635 18.4892 15.8814 19.2757C15.5993 20.0621 15.2139 20.0371 14.6165 19.969C12.5699 19.7377 10.8796 18.7945 9.54545 17.1393C8.21131 18.7945 6.52098 19.7377 4.47446 19.969Z" fill="url(#paint0_linear)"/>
<defs>
<linearGradient id="paint0_linear" x1="19.0909" y1="-2.8022" x2="2.85624" y2="19.9507" gradientUnits="userSpaceOnUse">
<stop stop-color="#FFD646"/>
<stop offset="1" stop-color="#E8A900"/>
</linearGradient>
</defs>
</svg>
