<svg width="18" height="23" viewBox="0 0 18 23" fill="none" xmlns="http://www.w3.org/2000/svg">
<path fill-rule="evenodd" clip-rule="evenodd" d="M15.0704 13.1506L17.5075 16.7317C17.7662 17.1097 17.796 17.5971 17.5821 18C17.3683 18.4029 16.9505 18.6566 16.4929 18.6566H1.2334C0.775812 18.6566 0.358016 18.4029 0.144145 18C-0.0697264 17.5971 -0.0448577 17.1097 0.213777 16.7317L2.65092 13.1506V8.68417C2.65092 5.67008 4.7946 3.15833 7.63959 2.5963V1.21857C7.63959 0.547113 8.18671 0 8.85816 0C9.52962 0 10.0767 0.547113 10.0767 1.21857V2.59133C12.9267 3.15833 15.0704 5.67008 15.0704 8.68417V13.1506ZM6.15246 20.1388V20.1189H11.5739V20.1388C11.5739 21.6359 10.3603 22.8495 8.86315 22.8495C7.36605 22.8495 6.15246 21.6359 6.15246 20.1388Z" fill="url(#paint0_linear)"/>
<defs>
<linearGradient id="paint0_linear" x1="17.7242" y1="-3.20143" x2="-1.72541" y2="18.9497" gradientUnits="userSpaceOnUse">
<stop stop-color="#FFD646"/>
<stop offset="1" stop-color="#E8A900"/>
</linearGradient>
</defs>
</svg>
