<svg width="23" height="22" viewBox="0 0 23 22" fill="none" xmlns="http://www.w3.org/2000/svg">
<path fill-rule="evenodd" clip-rule="evenodd" d="M10.4995 14.6797C10.3842 14.642 9.65845 13.8974 10.1123 12.4975H10.106C11.4445 11.0961 12.2255 9.25207 12.3015 7.31318C12.3015 4.30259 10.2187 2.72406 7.92402 2.72406C5.62931 2.72406 3.63859 4.30259 3.63859 7.31318C3.68306 9.24836 4.43734 11.0992 5.75724 12.5119C5.91529 12.8828 5.94816 13.2952 5.85083 13.6866C5.7535 14.0779 5.53131 14.4266 5.21808 14.6797C2.81783 15.5602 0 17.1679 0 18.7532V19.3479C0 21.5068 4.12876 22 7.95018 22C11.7716 22 15.8535 21.5085 15.8535 19.3479V18.7532C15.8518 17.1196 13.0192 15.5259 10.4995 14.6797ZM17.8818 10.7107C17.7741 10.6747 17.0914 10.5079 17.5174 9.19057H17.512C18.7153 7.8536 19.3845 6.11865 19.3916 4.31783C19.3916 1.48671 17.6184 0.0025809 15.4621 0.0025809C14.6959 -0.0261908 13.9398 0.18619 13.3 0.609942C12.6602 1.0337 12.1687 1.64757 11.8945 2.36551C12.6067 2.97118 13.1724 3.73119 13.5488 4.58816C13.9252 5.44512 14.1024 6.37663 14.0672 7.31234C14.0026 9.49812 13.1986 11.5969 11.7872 13.2641C13.6449 13.9672 16.5514 15.3807 17.3823 17.5438C20.3108 17.3808 22.9167 16.7734 22.9167 15.0992V14.54C22.9137 13.0046 20.2517 11.5057 17.8818 10.7107Z" fill="url(#paint0_linear)"/>
<defs>
<linearGradient id="paint0_linear" x1="22.9167" y1="-3.08242" x2="5.61669" y2="23.3764" gradientUnits="userSpaceOnUse">
<stop stop-color="#FFD646"/>
<stop offset="1" stop-color="#E8A900"/>
</linearGradient>
</defs>
</svg>
