<svg xmlns="http://www.w3.org/2000/svg">

<!-- ********************** Главные кнопки ************************** -->
<!-- ?Открыть меню -->
<symbol id="union" viewBox="0 0 59 57">
    <title id="union-title">Меню</title>
    <g filter="url(#filter0_dddd)">
        <path fill-rule="evenodd" clip-rule="evenodd" d="M23 16.0725C23 15.4802 23.4802 15 24.0725 15H35.2265C35.8188 15 36.299 15.4802 36.299 16.0725C36.299 16.6648 35.8188 17.145 35.2265 17.145H24.0725C23.4802 17.145 23 16.6648 23 16.0725ZM23 20.3625C23 19.7702 23.4801 19.29 24.0725 19.29H35.2265C35.8188 19.29 36.299 19.7702 36.299 20.3625C36.299 20.9548 35.8188 21.435 35.2265 21.435H24.0725C23.4801 21.435 23 20.9548 23 20.3625ZM24.0725 23.58C23.4801 23.58 23 24.0602 23 24.6525C23 25.2448 23.4801 25.725 24.0725 25.725H35.2265C35.8188 25.725 36.299 25.2448 36.299 24.6525C36.299 24.0602 35.8188 23.58 35.2265 23.58H24.0725Z" fill="url(#paint0_linear)"/>
    </g>
    <defs>
        <filter id="filter0_dddd" x="0.72497" y="0.975" width="57.849" height="55.275" filterUnits="userSpaceOnUse" color-interpolation-filters="sRGB">
            <feFlood flood-opacity="0" result="BackgroundImageFix"/>
            <feColorMatrix in="SourceAlpha" type="matrix" values="0 0 0 0 0 0 0 0 0 0 0 0 0 0 0 0 0 0 127 0" result="hardAlpha"/>
            <feOffset dy="4.95"/>
            <feGaussianBlur stdDeviation="3.3"/>
            <feColorMatrix type="matrix" values="0 0 0 0 0.0941176 0 0 0 0 0 0 0 0 0 0.172549 0 0 0 0.5 0"/>
            <feBlend mode="normal" in2="BackgroundImageFix" result="effect1_dropShadow"/>
            <feColorMatrix in="SourceAlpha" type="matrix" values="0 0 0 0 0 0 0 0 0 0 0 0 0 0 0 0 0 0 127 0" result="hardAlpha"/>
            <feOffset dy="1.65"/>
            <feColorMatrix type="matrix" values="0 0 0 0 0.45098 0 0 0 0 0.266667 0 0 0 0 0 0 0 0 1 0"/>
            <feBlend mode="normal" in2="effect1_dropShadow" result="effect2_dropShadow"/>
            <feColorMatrix in="SourceAlpha" type="matrix" values="0 0 0 0 0 0 0 0 0 0 0 0 0 0 0 0 0 0 127 0" result="hardAlpha"/>
            <feOffset dy="8.25"/>
            <feGaussianBlur stdDeviation="11.1375"/>
            <feColorMatrix type="matrix" values="0 0 0 0 0 0 0 0 0 0 0 0 0 0 0 0 0 0 0.45 0"/>
            <feBlend mode="normal" in2="effect2_dropShadow" result="effect3_dropShadow"/>
            <feColorMatrix in="SourceAlpha" type="matrix" values="0 0 0 0 0 0 0 0 0 0 0 0 0 0 0 0 0 0 127 0" result="hardAlpha"/>
            <feOffset dy="1.65"/>
            <feGaussianBlur stdDeviation="1.65"/>
            <feColorMatrix type="matrix" values="0 0 0 0 1 0 0 0 0 0.823529 0 0 0 0 0 0 0 0 0.25 0"/>
            <feBlend mode="normal" in2="effect3_dropShadow" result="effect4_dropShadow"/>
            <feBlend mode="normal" in="SourceGraphic" in2="effect4_dropShadow" result="shape"/>
        </filter>
        <linearGradient id="paint0_linear" x1="36.299" y1="13.4973" x2="28.5294" y2="27.6428" gradientUnits="userSpaceOnUse">
            <stop stop-color="#FFD646"/>
            <stop offset="1" stop-color="#E8A900"/>
        </linearGradient>
    </defs>
</symbol>
<!-- ?Скрыть -->
<symbol id="back" viewBox="0 0 18 15">
    <title id="back-title">Скрыть</title>
    <path d="M16.9882 6.06381L17.0163 6.06995H4.97152L8.75796 2.27517C8.94337 2.0899 9.04508 1.83893 9.04508 1.57551C9.04508 1.3121 8.94337 1.06288 8.75796 0.877171L8.16879 0.287707C7.98352 0.102439 7.73664 0 7.47337 0C7.20996 0 6.96293 0.101707 6.77766 0.286976L0.28698 6.77707C0.10098 6.96307 -0.000727787 7.21083 3.92069e-06 7.47439C-0.000727787 7.73942 0.10098 7.98732 0.28698 8.17303L6.77766 14.6637C6.96293 14.8488 7.20981 14.9507 7.47337 14.9507C7.73664 14.9507 7.98352 14.8487 8.16879 14.6637L8.75796 14.0742C8.94337 13.8893 9.04508 13.6422 9.04508 13.3788C9.04508 13.1156 8.94337 12.8816 8.75796 12.6964L4.92878 8.88044H17.0017C17.5442 8.88044 18 8.41288 18 7.87068V7.03698C18 6.49478 17.5307 6.06381 16.9882 6.06381Z" />
</symbol>

<!-- ********************** Главное меню ********************** -->
<!-- ?меню -->
<symbol id="menu" viewBox="0 0 24 19">
    <title id="menu-title">Меню</title>
    <path fill-rule="evenodd" clip-rule="evenodd" d="M0.0399512 1.87252C0.0399512 0.838355 0.878307 0 1.91247 0H21.3867C22.4208 0 23.2592 0.838355 23.2592 1.87252C23.2592 2.90668 22.4208 3.74504 21.3867 3.74504H1.91247C0.878307 3.74504 0.0399512 2.90668 0.0399512 1.87252ZM0.039917 9.36268C0.039917 8.32851 0.878273 7.49016 1.91244 7.49016H21.3866C22.4208 7.49016 23.2592 8.32851 23.2592 9.36268C23.2592 10.3968 22.4208 11.2352 21.3866 11.2352H1.91244C0.878273 11.2352 0.039917 10.3968 0.039917 9.36268ZM1.91244 14.9801C0.878273 14.9801 0.039917 15.8185 0.039917 16.8527C0.039917 17.8868 0.878273 18.7252 1.91244 18.7252H21.3866C22.4208 18.7252 23.2592 17.8868 23.2592 16.8527C23.2592 15.8185 22.4208 14.9801 21.3866 14.9801H1.91244Z" fill="url(#paint0_linear)"/>
    <defs>
        <linearGradient id="paint0_linear" x1="23.2592" y1="-2.62359" x2="9.6939" y2="22.0735" gradientUnits="userSpaceOnUse">
            <stop stop-color="#FFD646"/>
            <stop offset="1" stop-color="#E8A900"/>
        </linearGradient>
    </defs>
</symbol>
<!-- ?Баланс -->
<symbol id="balance" viewBox="0 0 26 33">
    <title id="balance-title">Баланс</title>
    <path d="M8.34299 7.78856L3.65892 1.76928C3.65892 1.76928 3.76695 0.6782 6.79171 0.782987C9.81648 0.887773 14.1894 0.0710863 17.023 0.0062699C20.2962 -0.068269 23.5435 0.546407 23.5435 0.546407L18.6488 7.78424L8.34299 7.78856Z" fill="white"/>
    <path d="M8.34299 7.78874L3.65892 1.76946C3.65892 1.76946 3.76695 -0.0940136 6.79171 0.0118532C9.81648 0.11772 13.0389 1.41621 15.866 1.55016C19.9192 1.73921 23.5446 0.546588 23.5446 0.546588L18.6499 7.78442L8.34299 7.78874Z" fill="url(#paint0_linear)"/>
    <path d="M24.6012 18.8555C23.0963 15.1566 20.7824 11.2936 18.6488 7.7881H8.34304C6.23327 11.2903 4.10513 15.2053 2.43827 18.8555C-1.11691 26.6454 0.9086 29.2132 5.0817 31.0529C8.17668 32.4183 18.8617 32.4183 21.9566 31.0529C26.1297 29.2132 27.1819 25.2032 24.6012 18.8555Z" fill="url(#paint1_linear)"/>
    <path fill-rule="evenodd" clip-rule="evenodd" d="M19.1807 18.0392C19.0028 16.1035 17.6151 14.699 15.8784 14.699C15.3089 14.7025 14.7501 14.8518 14.257 15.1324C13.764 15.4129 13.3536 15.815 13.0663 16.299C12.794 15.8167 12.3962 15.4143 11.9139 15.1331C11.4315 14.8519 10.8818 14.702 10.3212 14.6987C8.58521 14.6987 7.19715 16.1041 7.01929 18.0392C6.97379 18.465 7.00894 18.8954 7.12296 19.3086C7.38607 20.3837 7.97532 21.3545 8.81241 22.0921C8.81241 22.0921 11.1198 24.2399 11.8542 24.8179C12.6923 25.4595 13.4102 25.4809 14.2914 24.8197C15.0466 24.2417 17.3876 22.0924 17.3876 22.0924C18.2247 21.3548 18.8138 20.3838 19.0767 19.3086C19.1909 18.8955 19.2262 18.465 19.1807 18.0392Z" fill="white"/>
    <path d="M19.6028 8.01248C19.6028 8.21773 19.3964 8.38517 19.1426 8.38517H7.70139C7.44644 8.38517 7.24011 8.21773 7.24011 8.01248V7.70676C7.24011 7.50043 7.44644 7.33407 7.70139 7.33407H19.1426C19.3964 7.33407 19.6028 7.50043 19.6028 7.70676V8.01248Z" fill="white"/>
    <defs>
    <linearGradient id="paint0_linear" x1="13.6018" y1="0.00750732" x2="13.6018" y2="7.78874" gradientUnits="userSpaceOnUse">
    <stop stop-color="#CA6700"/>
    <stop offset="1" stop-color="#F7BB49"/>
    </linearGradient>
    <linearGradient id="paint1_linear" x1="13.3041" y1="7.7881" x2="13.3041" y2="32.077" gradientUnits="userSpaceOnUse">
    <stop stop-color="#F7BB49"/>
    <stop offset="1" stop-color="#CA6700"/>
    </linearGradient>
    </defs>
</symbol>
<!-- ?Акции -->
<symbol id="badge" viewBox="0 0 21 26">
    <title id="badge-title">Акции</title>
    <path d="M15.3812 4.89068C13.0286 2.07751 10.7062 0.249076 10.6087 0.172744C10.0785 -0.241928 9.30142 0.137004 9.30142 0.809688V4.36647C9.30142 6.20309 6.87086 6.84944 5.95998 5.25314C5.67674 4.75804 4.98804 4.70587 4.6315 5.14142C2.18376 8.12859 0 11.895 0 15.7728C0 21.3476 4.53545 25.8831 10.1102 25.8831C15.685 25.8831 20.2205 21.3476 20.2205 15.7728C20.2205 11.7947 17.9235 7.93093 15.3812 4.89068Z" fill="url(#paint0_linear)"/>
    <path d="M14.1289 18.0035C14.3292 17.7915 14.4293 17.5559 14.4293 17.2968C14.4293 17.0377 14.3292 16.808 14.1289 16.6078C13.9405 16.4075 13.7285 16.3074 13.4929 16.3074C13.2102 16.3074 12.9746 16.4075 12.7862 16.6078C12.5977 16.808 12.5035 17.0377 12.5035 17.2968C12.5035 17.5677 12.5977 17.8033 12.7862 18.0035C12.9746 18.2038 13.2102 18.3039 13.4929 18.3039C13.7285 18.3039 13.9405 18.2038 14.1289 18.0035ZM7.52116 13.3569C7.70962 13.1567 7.80384 12.927 7.80384 12.6678C7.80384 12.4087 7.70962 12.179 7.52116 11.9788C7.3327 11.7668 7.12069 11.6608 6.88512 11.6608C6.60243 11.6608 6.36097 11.7609 6.16074 11.9611C5.97228 12.1614 5.87805 12.3969 5.87805 12.6678C5.87805 12.927 5.97228 13.1567 6.16074 13.3569C6.36097 13.5571 6.60243 13.6572 6.88512 13.6572C7.12069 13.6572 7.3327 13.5571 7.52116 13.3569ZM15.8074 17.2968C15.8074 17.9093 15.5718 18.4511 15.1007 18.9223C14.6413 19.4052 14.1054 19.6466 13.4929 19.6466C12.8568 19.6466 12.3033 19.4052 11.8321 18.9223C11.361 18.4511 11.1254 17.9093 11.1254 17.2968C11.1254 16.6608 11.3551 16.1072 11.8144 15.636C12.2856 15.1649 12.8451 14.9293 13.4929 14.9293C14.1171 14.9293 14.659 15.1649 15.1183 15.636C15.5777 16.1072 15.8074 16.6608 15.8074 17.2968ZM9.18193 12.6678C9.18193 13.2685 8.94636 13.8104 8.47522 14.2933C8.01586 14.7644 7.48582 15 6.88512 15C6.2373 15 5.67782 14.7644 5.20667 14.2933C4.73553 13.8221 4.49996 13.2803 4.49996 12.6678C4.49996 12.02 4.73553 11.4605 5.20667 10.9894C5.67782 10.5183 6.2373 10.2827 6.88512 10.2827C7.4976 10.2827 8.03353 10.5183 8.49289 10.9894C8.95225 11.4605 9.18193 12.02 9.18193 12.6678ZM13.9699 11.0071L7.6095 20L6.35508 18.9399L12.6272 10L13.9699 11.0071Z" fill="white"/>
    <defs>
    <linearGradient id="paint0_linear" x1="10.1102" y1="0" x2="10.1102" y2="25.8831" gradientUnits="userSpaceOnUse">
    <stop stop-color="#A060F1"/>
    <stop offset="1" stop-color="#FF3434"/>
    </linearGradient>
    </defs>
</symbol>
<!-- ?помощь -->
<symbol id="support" viewBox="0 0 33 27" fill="none">
    <title id="support-title">Помощь</title>
    <path d="M19.2966 2.92216V11.1118C19.2966 11.8868 18.9888 12.63 18.4408 13.178C17.8928 13.7261 17.1495 14.0339 16.3745 14.0339H10.2276V19.2777C10.2276 19.9303 9.89184 20.0485 9.48519 19.5473L4.9601 14.0339H2.18453C1.30504 14.0339 0 12.7242 0 11.1118V2.92216C0 2.14715 0.307869 1.40389 0.85588 0.85588C1.40389 0.307869 2.14715 0 2.92216 0L16.3745 0C17.1495 0 17.8928 0.307869 18.4408 0.85588C18.9888 1.40389 19.2966 2.14715 19.2966 2.92216Z" fill="url(#paint0_linear)"/>
<path d="M9.4568 9.53709C9.28544 9.53874 9.1162 9.57513 8.95931 9.64405C8.80241 9.71298 8.66113 9.81301 8.544 9.93809C8.42687 10.0632 8.33633 10.2107 8.27785 10.3718C8.21937 10.5329 8.19417 10.7041 8.20377 10.8752C8.20377 11.2113 8.33728 11.5336 8.57493 11.7713C8.81257 12.0089 9.1349 12.1424 9.47098 12.1424C9.80707 12.1424 10.1294 12.0089 10.367 11.7713C10.6047 11.5336 10.7382 11.2113 10.7382 10.8752C10.7472 10.7019 10.7207 10.5286 10.6602 10.3659C10.5998 10.2032 10.5067 10.0546 10.3866 9.92927C10.2666 9.80392 10.1222 9.70446 9.96228 9.63702C9.80237 9.56957 9.63034 9.53557 9.4568 9.53709ZM12.3742 4.6952C12.3742 3.00715 11.159 2.24588 9.53718 2.24588C9.03308 2.25537 8.53748 2.37749 8.08668 2.6033C7.63589 2.82911 7.2413 3.15289 6.93182 3.55092L8.08556 4.61009C8.24603 4.41611 8.4447 4.25724 8.66922 4.14335C8.89374 4.02946 9.13929 3.96301 9.3906 3.94811C9.51422 3.93564 9.63908 3.95008 9.75659 3.99045C9.87411 4.03082 9.98148 4.09616 10.0713 4.18197C10.1612 4.26779 10.2314 4.37205 10.2771 4.48758C10.3229 4.6031 10.3431 4.72717 10.3363 4.85124C10.3363 5.92459 8.24632 6.7426 8.53476 8.70489H10.4025C10.2228 6.99793 12.3742 6.47308 12.3742 4.6952Z" fill="#F7F7F7"/>
<path opacity="0.2" d="M19.2966 5.56519V11.1116C19.2966 11.8866 18.9888 12.6299 18.4408 13.1779C17.8928 13.7259 17.1495 14.0338 16.3745 14.0338H12.0858V8.51099C12.0858 7.73473 12.3942 6.99026 12.9431 6.44136C13.492 5.89247 14.2364 5.5841 15.0127 5.5841L19.2966 5.56519Z" fill="black"/>
<path d="M15.9016 20.1854V25.434C15.9016 26.077 16.2326 26.1952 16.644 25.6987L21.1643 20.1854H29.6329C30.4084 20.1842 31.1516 19.8752 31.6995 19.3265C32.2474 18.7777 32.5551 18.034 32.5551 17.2585V9.07365C32.5557 8.68951 32.4806 8.30901 32.334 7.95394C32.1874 7.59886 31.9723 7.27616 31.7009 7.00431C31.4295 6.73247 31.1071 6.5168 30.7523 6.36965C30.3974 6.2225 30.0171 6.14676 29.6329 6.14676H15.6037C15.2196 6.14614 14.8391 6.22127 14.484 6.36784C14.1289 6.51441 13.8062 6.72956 13.5344 7.00097C13.2626 7.27238 13.0469 7.59473 12.8997 7.94957C12.7526 8.30441 12.6768 8.68478 12.6768 9.06892V17.2585C12.6768 18.8756 13.4003 20.1854 14.294 20.1854H15.9016Z" fill="url(#paint1_linear)"/>
<path d="M28.4745 12.2135H16.7575C16.6369 12.2224 16.5158 12.2063 16.4017 12.1662C16.2876 12.1262 16.183 12.063 16.0944 11.9807C16.0058 11.8984 15.9351 11.7987 15.8868 11.6878C15.8385 11.577 15.8136 11.4573 15.8136 11.3364C15.8136 11.2155 15.8385 11.0959 15.8868 10.985C15.9351 10.8742 16.0058 10.7745 16.0944 10.6922C16.183 10.6098 16.2876 10.5467 16.4017 10.5066C16.5158 10.4665 16.6369 10.4504 16.7575 10.4593H28.4745C28.696 10.4756 28.9031 10.5751 29.0543 10.7378C29.2055 10.9005 29.2895 11.1143 29.2895 11.3364C29.2895 11.5585 29.2055 11.7724 29.0543 11.9351C28.9031 12.0978 28.696 12.1973 28.4745 12.2135Z" fill="#F7F7F7"/>
<path d="M28.4745 16.0768H16.7575C16.6369 16.0856 16.5158 16.0695 16.4017 16.0295C16.2876 15.9894 16.183 15.9262 16.0944 15.8439C16.0058 15.7616 15.9351 15.6619 15.8868 15.551C15.8385 15.4402 15.8136 15.3206 15.8136 15.1996C15.8136 15.0787 15.8385 14.9591 15.8868 14.8482C15.9351 14.7374 16.0058 14.6377 16.0944 14.5554C16.183 14.4731 16.2876 14.4099 16.4017 14.3698C16.5158 14.3298 16.6369 14.3137 16.7575 14.3225H28.4745C28.696 14.3388 28.9031 14.4383 29.0543 14.601C29.2055 14.7637 29.2895 14.9775 29.2895 15.1996C29.2895 15.4217 29.2055 15.6356 29.0543 15.7983C28.9031 15.961 28.696 16.0605 28.4745 16.0768Z" fill="#F7F7F7"/>
<defs>
<linearGradient id="paint0_linear" x1="9.64832" y1="0" x2="9.64832" y2="19.8573" gradientUnits="userSpaceOnUse">
<stop stop-color="#C74331"/>
<stop offset="1" stop-color="#F2B355"/>
</linearGradient>
<linearGradient id="paint1_linear" x1="22.616" y1="6.14676" x2="22.616" y2="26.0057" gradientUnits="userSpaceOnUse">
<stop stop-color="#348219"/>
<stop offset="1" stop-color="#7FD37D"/>
</linearGradient>
</defs>
</symbol>

<!-- ********************* Основное поле ********************** -->
<!-- ?События -->
<symbol id="events" viewBox="0 0 18 23">
    <title id="events-title">События</title>
    <path fill-rule="evenodd" clip-rule="evenodd" d="M15.0704 13.1506L17.5075 16.7317C17.7662 17.1097 17.796 17.5971 17.5821 18C17.3683 18.4029 16.9505 18.6566 16.4929 18.6566H1.2334C0.775812 18.6566 0.358016 18.4029 0.144145 18C-0.0697264 17.5971 -0.0448577 17.1097 0.213777 16.7317L2.65092 13.1506V8.68417C2.65092 5.67008 4.7946 3.15833 7.63959 2.5963V1.21857C7.63959 0.547113 8.18671 0 8.85816 0C9.52962 0 10.0767 0.547113 10.0767 1.21857V2.59133C12.9267 3.15833 15.0704 5.67008 15.0704 8.68417V13.1506ZM6.15246 20.1388V20.1189H11.5739V20.1388C11.5739 21.6359 10.3603 22.8495 8.86315 22.8495C7.36605 22.8495 6.15246 21.6359 6.15246 20.1388Z" fill="url(#paint0_linear)"/>
<defs>
<linearGradient id="paint0_linear" x1="17.7242" y1="-3.20143" x2="-1.72541" y2="18.9497" gradientUnits="userSpaceOnUse">
<stop stop-color="#FFD646"/>
<stop offset="1" stop-color="#E8A900"/>
</linearGradient>
</defs>
</symbol>
<!-- ?Друзья и гости -->
<symbol id="friends" viewBox="0 0 23 22">
    <title id="friends-title">Друзья и гости</title>
    <path fill-rule="evenodd" clip-rule="evenodd" d="M10.4995 14.6797C10.3842 14.642 9.65845 13.8974 10.1123 12.4975H10.106C11.4445 11.0961 12.2255 9.25207 12.3015 7.31318C12.3015 4.30259 10.2187 2.72406 7.92402 2.72406C5.62931 2.72406 3.63859 4.30259 3.63859 7.31318C3.68306 9.24836 4.43734 11.0992 5.75724 12.5119C5.91529 12.8828 5.94816 13.2952 5.85083 13.6866C5.7535 14.0779 5.53131 14.4266 5.21808 14.6797C2.81783 15.5602 0 17.1679 0 18.7532V19.3479C0 21.5068 4.12876 22 7.95018 22C11.7716 22 15.8535 21.5085 15.8535 19.3479V18.7532C15.8518 17.1196 13.0192 15.5259 10.4995 14.6797ZM17.8818 10.7107C17.7741 10.6747 17.0914 10.5079 17.5174 9.19057H17.512C18.7153 7.8536 19.3845 6.11865 19.3916 4.31783C19.3916 1.48671 17.6184 0.0025809 15.4621 0.0025809C14.6959 -0.0261908 13.9398 0.18619 13.3 0.609942C12.6602 1.0337 12.1687 1.64757 11.8945 2.36551C12.6067 2.97118 13.1724 3.73119 13.5488 4.58816C13.9252 5.44512 14.1024 6.37663 14.0672 7.31234C14.0026 9.49812 13.1986 11.5969 11.7872 13.2641C13.6449 13.9672 16.5514 15.3807 17.3823 17.5438C20.3108 17.3808 22.9167 16.7734 22.9167 15.0992V14.54C22.9137 13.0046 20.2517 11.5057 17.8818 10.7107Z" fill="url(#paint0_linear)"/>
    <defs>
    <linearGradient id="paint0_linear" x1="22.9167" y1="-3.08242" x2="5.61669" y2="23.3764" gradientUnits="userSpaceOnUse">
    <stop stop-color="#FFD646"/>
    <stop offset="1" stop-color="#E8A900"/>
    </linearGradient>
    </defs>
</symbol>
<!-- ?Лиги -->
<symbol id="leagues" viewBox="0 0 20 20">
    <title id="leagues-title">Лиги</title>
    <path d="M19.4693 7.13792L13.321 6.19875L10.5651 0.32875C10.3593 -0.109583 9.64012 -0.109583 9.43429 0.32875L6.67929 6.19875L0.530958 7.13792C0.0259577 7.21542 -0.175709 7.82958 0.178458 8.19208L4.64512 12.7704L3.58929 19.2429C3.50512 19.7571 4.05429 20.1429 4.50846 19.8904L10.0001 16.8554L15.4918 19.8913C15.9418 20.1413 16.496 19.7629 16.411 19.2438L15.3551 12.7712L19.8218 8.19292C20.176 7.82958 19.9735 7.21542 19.4693 7.13792Z" fill="url(#paint0_linear)"/>
    <defs>
        <linearGradient id="paint0_linear" x1="20.0001" y1="-2.79803" x2="4.05702" y2="20.6451" gradientUnits="userSpaceOnUse">
            <stop stop-color="#FFD646"/>
            <stop offset="1" stop-color="#E8A900"/>
        </linearGradient>
    </defs>
</symbol>
<!-- ?настройки -->
<symbol id="settings" viewBox="0 0 20 21">
    <title id="settings-title">Настройки</title>
    <path fill-rule="evenodd" clip-rule="evenodd" d="M19.9351 8.88537C19.9053 8.60262 19.5779 8.39427 19.2952 8.39427C18.3799 8.39427 17.5689 7.85853 17.2266 7.02515C16.8769 6.16945 17.1001 5.17981 17.7847 4.55478C18.0004 4.36132 18.0228 4.02648 17.8442 3.80325C17.3754 3.20798 16.8397 2.67224 16.2593 2.20346C16.0286 2.01744 15.6938 2.0472 15.5003 2.26299C14.905 2.92523 13.8336 3.17078 13.0076 2.82105C12.1445 2.45645 11.6013 1.58587 11.6534 0.648317C11.6683 0.350682 11.4525 0.0976919 11.1623 0.0679284C10.4182 -0.0213622 9.65922 -0.0213622 8.91514 0.0604875C8.62494 0.090251 8.40915 0.343241 8.4166 0.633435C8.44636 1.56355 7.90317 2.41925 7.04747 2.76897C6.22898 3.10381 5.16493 2.85826 4.56966 2.20346C4.3762 1.98768 4.04136 1.95791 3.81813 2.13649C3.21542 2.60527 2.67224 3.14845 2.20346 3.73628C2.01744 3.96695 2.0472 4.30179 2.26299 4.49525C2.96243 5.12773 3.18566 6.1248 2.82105 6.98795C2.47877 7.80644 1.62307 8.34219 0.648317 8.34219C0.328359 8.33475 0.105133 8.54309 0.0679284 8.83329C-0.0213622 9.58481 -0.0213622 10.3512 0.0604875 11.1102C0.090251 11.3929 0.432532 11.6013 0.715285 11.6013C1.58587 11.579 2.41925 12.1147 2.76897 12.9704C3.11869 13.8261 2.89546 14.8158 2.2109 15.4408C1.99512 15.6342 1.97279 15.9691 2.15137 16.1923C2.61271 16.7876 3.14845 17.3233 3.73628 17.7921C3.96695 17.9781 4.30179 17.9484 4.49525 17.7326C5.09052 17.0703 6.16201 16.8248 6.98795 17.1745C7.85109 17.5391 8.39427 18.4097 8.34219 19.3472C8.3273 19.6449 8.54309 19.8979 8.83328 19.9351C9.21277 19.9797 9.5997 20.002 9.98662 20.002C10.3512 20.002 10.7158 19.9797 11.0879 19.9425C11.3781 19.9128 11.5939 19.6598 11.5864 19.3696C11.5492 18.4395 12.0998 17.5838 12.9555 17.234C13.7815 16.8992 14.8381 17.1447 15.4333 17.7995C15.6342 18.0153 15.9542 18.0377 16.1849 17.8591C16.7801 17.3903 17.3233 16.8546 17.7995 16.2593C17.9856 16.0286 17.9558 15.6938 17.74 15.5003C17.0406 14.8678 16.8173 13.8708 17.182 13.0076C17.5242 12.1966 18.3427 11.6534 19.2282 11.6534H19.3547C19.6449 11.6757 19.9053 11.4525 19.9425 11.1623C20.0169 10.4033 20.0244 9.6369 19.9351 8.88537ZM10.0164 13.3499C8.17849 13.3499 6.68287 11.8543 6.68287 10.0164C6.68287 8.17849 8.17849 6.68287 10.0164 6.68287C11.8543 6.68287 13.3499 8.17849 13.3499 10.0164C13.3499 11.8543 11.8543 13.3499 10.0164 13.3499Z" fill="url(#paint0_linear)"/>
    <defs>
        <linearGradient id="paint0_linear" x1="20.0002" y1="-2.80248" x2="4.02246" y2="20.6544" gradientUnits="userSpaceOnUse">
            <stop stop-color="#FFD646"/>
            <stop offset="1" stop-color="#E8A900"/>
        </linearGradient>
    </defs>
</symbol>
<!-- ?Лидеры -->
<symbol id="leaders" viewBox="0 0 17 15">
    <title id="leaders-title">Лидеры</title>
    <path fill-rule="evenodd" clip-rule="evenodd" d="M6 0H11V15H6V0ZM0 5H5V15H0V5ZM17 10H12V15H17V10Z" fill="url(#paint0_linear)"/>
<defs>
<linearGradient id="paint0_linear" x1="34" y1="-12.1016" x2="21.7374" y2="4.70238" gradientUnits="userSpaceOnUse">
<stop stop-color="#FFD646"/>
<stop offset="1" stop-color="#E8A900"/>
</linearGradient>
</defs>
</symbol>
<!-- ?Достижения -->
<symbol id="achivement" viewBox="0 0 20 23">
    <title id="achivement-title">Достижения</title>
    <path fill-rule="evenodd" clip-rule="evenodd" d="M9.6197 0C14.1615 0 17.8568 3.69531 17.8568 8.23711C17.8568 12.7832 14.1572 16.4742 9.61541 16.4742C5.07361 16.4742 1.3783 12.7789 1.3783 8.23711C1.3783 3.69531 5.07791 0 9.6197 0ZM12.9068 9.30703L14.7072 7.15859C14.849 6.99102 14.8963 6.75469 14.8275 6.54414C14.7588 6.33359 14.5869 6.17461 14.372 6.11875L11.6521 5.43984L10.1654 3.06367C10.0494 2.87891 9.84314 2.76289 9.6197 2.76289C9.39626 2.76289 9.19001 2.87461 9.074 3.06367L7.58728 5.43984L4.86736 6.11875C4.65251 6.17031 4.48064 6.33359 4.41189 6.54414C4.34314 6.75469 4.39041 6.98672 4.5322 7.15859L6.33259 9.30703L6.13923 12.1043C6.12205 12.3277 6.22087 12.5426 6.40134 12.6715C6.67205 12.8691 6.95134 12.7789 7.02009 12.7488L9.6197 11.7004L12.2193 12.7488C12.4256 12.8305 12.6576 12.8004 12.8381 12.6715C13.0142 12.5383 13.1174 12.3277 13.1002 12.1043L12.9068 9.30703ZM10.6982 6.34219L9.61971 4.61914L8.5412 6.34219C8.45096 6.48398 8.31346 6.58711 8.15018 6.62578L6.17792 7.11992L7.48417 8.67969C7.59159 8.80859 7.64315 8.97188 7.63456 9.13945L7.49276 11.1676L9.37909 10.407C9.46932 10.3727 9.65409 10.3211 9.86034 10.407L11.7467 11.1676L11.6049 9.13945C11.592 8.97188 11.6478 8.80859 11.7553 8.67969L13.0615 7.11992L11.0849 6.62578C10.926 6.58711 10.7842 6.48398 10.6982 6.34219ZM0.0677788 18.3047L2.14747 14.1453C3.71583 16.1262 6.05333 17.4711 8.7045 17.7203L6.74512 21.6434C6.64629 21.841 6.43575 22 6.16934 22C5.96739 22 5.77403 21.9055 5.65372 21.7422L3.77598 19.2371H0.647857C0.424419 19.2371 0.213873 19.1211 0.097857 18.932C-0.0224555 18.743 -0.0310493 18.5067 0.0677788 18.3047ZM17.0877 14.1453L19.1674 18.3047C19.2705 18.5067 19.2576 18.743 19.1373 18.9363C19.017 19.1254 18.8107 19.2414 18.5873 19.2414H15.4592L13.5814 21.7465C13.4611 21.9098 13.2677 22.0043 13.0658 22.0043C12.7994 22.0043 12.5888 21.8453 12.49 21.6477L10.5306 17.7246C13.1818 17.4711 15.5193 16.1262 17.0877 14.1453Z" fill="url(#paint0_linear)"/>
    <defs>
    <linearGradient id="paint0_linear" x1="19.2369" y1="-3.08302" x2="0.921779" y2="20.4259" gradientUnits="userSpaceOnUse">
    <stop stop-color="#FFD646"/>
    <stop offset="1" stop-color="#E8A900"/>
    </linearGradient>
    </defs>
</symbol>
<!-- ?Коллекции -->
<symbol id="collections" viewBox="0 0 20 20">
    <title id="collections-title">Коллекции</title>
    <path fill-rule="evenodd" clip-rule="evenodd" d="M4.47446 19.969C3.87697 20.0371 3.49163 20.0621 3.20953 19.2757C2.92744 18.4892 2.10641 16.064 3.79568 14.1536C2.05961 13.9373 0.453564 12.0208 0.151469 10.3198C0.0798062 9.93394 0 9.37126 0 8.94404V3.1546C0.0704646 2.18712 0.560215 2.01502 1.46925 2.63829C2.66022 3.48826 5.16352 5.25751 7.32378 7.27362C7.51621 6.36781 7.86784 5.76903 8.70665 5.42267C8.38926 4.6913 7.51334 2.73189 5.3771 1.81752C4.92707 2.5411 3.76308 2.46133 3.41988 1.7633C3.07668 1.06527 3.33426 0 4.47446 0C5.61466 0 7.77262 0.803132 9.54545 3.63595L9.59875 3.55157C11.3613 0.78715 13.4877 0 14.6165 0C15.7567 0 16.0142 1.06527 15.671 1.7633C15.3278 2.46133 14.1638 2.5411 13.7138 1.81752C11.5776 2.73189 10.7016 4.6913 10.3843 5.42267C11.2231 5.76903 11.5747 6.36781 11.7671 7.27362C13.9274 5.25751 16.4307 3.48826 17.6217 2.63829C18.5307 2.01502 19.0204 2.18712 19.0909 3.1546V8.94404C19.0909 9.37126 19.0111 9.93394 18.9394 10.3198C18.6373 12.0208 17.0313 13.9373 15.2952 14.1536C16.9845 16.064 16.1635 18.4892 15.8814 19.2757C15.5993 20.0621 15.2139 20.0371 14.6165 19.969C12.5699 19.7377 10.8796 18.7945 9.54545 17.1393C8.21131 18.7945 6.52098 19.7377 4.47446 19.969Z" fill="url(#paint0_linear)"/>
    <defs>
    <linearGradient id="paint0_linear" x1="19.0909" y1="-2.8022" x2="2.85624" y2="19.9507" gradientUnits="userSpaceOnUse">
    <stop stop-color="#FFD646"/>
    <stop offset="1" stop-color="#E8A900"/>
    </linearGradient>
    </defs>
</symbol>
<!-- ?поиск -->
<symbol id="search" viewBox="0 0 21 21">
    <title id="search-title">Поиск по игрокам</title>
    <path fill-rule="evenodd" clip-rule="evenodd" d="M20.486 18.0042L15.9239 13.4422C15.8996 13.4179 15.8712 13.401 15.8458 13.3784C16.7752 11.9707 17.2696 10.3206 17.2674 8.63383C17.2674 3.86545 13.402 0 8.63372 0C3.86545 0 0 3.86545 0 8.63372C0 13.402 3.86539 17.2674 8.63365 17.2674C10.3205 17.2697 11.9706 16.7752 13.3782 15.8458C13.4008 15.8711 13.4177 15.8995 13.4419 15.9238L18.0042 20.486C18.3333 20.8151 18.7796 21 19.2451 21C19.7105 21 20.1569 20.8151 20.486 20.486C20.8151 20.1569 21 19.7105 21 19.2451C21 18.7796 20.8151 18.3333 20.486 18.0042ZM8.63372 14.2743C7.51808 14.2743 6.42749 13.9435 5.49986 13.3237C4.57222 12.7039 3.84922 11.823 3.42227 10.7923C2.99532 9.76155 2.8836 8.62737 3.10125 7.53317C3.31889 6.43896 3.85612 5.43387 4.645 4.645C5.43387 3.85612 6.43896 3.31889 7.53317 3.10125C8.62737 2.8836 9.76155 2.99532 10.7923 3.42227C11.823 3.84922 12.7039 4.57222 13.3237 5.49986C13.9435 6.42749 14.2743 7.51808 14.2743 8.63372C14.2743 10.1297 13.68 11.5644 12.6222 12.6222C11.5644 13.68 10.1297 14.2743 8.63372 14.2743Z" fill="url(#paint0_linear)"/>
    <defs>
        <linearGradient id="paint0_linear" x1="21" y1="-2.94231" x2="4.22567" y2="21.6864" gradientUnits="userSpaceOnUse">
            <stop stop-color="#FFD646"/>
            <stop offset="1" stop-color="#E8A900"/>
        </linearGradient>
    </defs>
</symbol>
<!-- ?свадьбы -->
<symbol id="wedding" viewBox="0 0 21 24">
    <title id="wedding-title">Свадьбы</title>
    <path d="M2.77504 11.3867C2.77504 8.82863 4.85593 6.74722 7.41557 6.74722C9.97204 6.74722 12.0535 8.82863 12.0535 11.3867C12.0535 12.9414 11.285 14.3197 10.1085 15.1619C9.89831 15.5922 9.77928 16.0757 9.77928 16.5876C9.77928 17.1917 9.94413 17.7589 10.2317 18.2435C12.9262 17.1322 14.828 14.4783 14.828 11.3872C14.828 8.00755 12.5549 5.14929 9.45801 4.26079L10.9732 2.88828V0.9833C10.9722 0.431872 10.5261 0 9.9752 0H4.85383C4.30293 0 3.85157 0.431872 3.85157 0.9833V2.88775L5.36997 4.25974C2.27102 5.14929 0 8.00702 0 11.3867C0 14.3887 1.7949 16.9794 4.36823 18.1444C4.27712 17.6394 4.23024 17.119 4.23024 16.5876C4.23024 16.0125 4.28607 15.4489 4.39299 14.9038C3.40179 14.0527 2.77504 12.7908 2.77504 11.3867Z" fill="url(#paint0_linear)"/>
    <path d="M16.0846 9.83405C16.1752 10.3381 16.2226 10.8563 16.2226 11.3867C16.2226 11.9644 16.1668 12.529 16.0588 13.0763C17.0442 13.9279 17.6699 15.1856 17.6699 16.5871C17.6699 19.1451 15.589 21.2276 13.031 21.2276C10.4719 21.2276 8.39096 19.1456 8.39096 16.5871C8.39096 15.0271 9.1657 13.644 10.3507 12.8013C10.5593 12.3737 10.6757 11.8928 10.6757 11.3856C10.6757 10.78 10.5087 10.2133 10.2206 9.72766C7.52248 10.8374 5.6175 13.4934 5.6175 16.5865C5.6175 20.674 8.94292 23.9995 13.031 23.9995C17.1174 23.9995 20.4428 20.674 20.4428 16.5865C20.4428 13.5887 18.6527 11.0001 16.0846 9.83405Z" fill="url(#paint1_linear)"/>
    <defs>
        <linearGradient id="paint0_linear" x1="14.828" y1="-2.55609" x2="-0.590971" y2="15.8442" gradientUnits="userSpaceOnUse">
            <stop stop-color="#FFD646"/>
            <stop offset="1" stop-color="#E8A900"/>
        </linearGradient>
        <linearGradient id="paint1_linear" x1="20.4428" y1="7.72804" x2="9.20759" y2="24.8638" gradientUnits="userSpaceOnUse">
            <stop stop-color="#FFD646"/>
            <stop offset="1" stop-color="#E8A900"/>
        </linearGradient>
    </defs>
</symbol>
<!-- ?уведомления -->
<symbol id="notification" viewBox="0 0 20 20">
    <title id="notification-title">События</title>
    <circle cx="10" cy="10" r="10" fill="white"/>
    <g filter="url(#filter0_d)">
        <circle cx="10" cy="10" r="8" fill="#FE041B"/>
    </g>
    <defs>
        <filter id="filter0_d" x="0" y="0" width="20" height="20" filterUnits="userSpaceOnUse" color-interpolation-filters="sRGB">
            <feFlood flood-opacity="0" result="BackgroundImageFix"/>
            <feColorMatrix in="SourceAlpha" type="matrix" values="0 0 0 0 0 0 0 0 0 0 0 0 0 0 0 0 0 0 127 0" result="hardAlpha"/>
            <feOffset/>
            <feGaussianBlur stdDeviation="1"/>
            <feColorMatrix type="matrix" values="0 0 0 0 0.554167 0 0 0 0 0.0138541 0 0 0 0 0.0138541 0 0 0 1 0"/>
            <feBlend mode="normal" in2="BackgroundImageFix" result="effect1_dropShadow"/>
            <feBlend mode="normal" in="SourceGraphic" in2="effect1_dropShadow" result="shape"/>
        </filter>
    </defs>
</symbol>

</svg>