<svg width="24" height="19" viewBox="0 0 24 19" fill="none" xmlns="http://www.w3.org/2000/svg">
<path fill-rule="evenodd" clip-rule="evenodd" d="M0.0399512 1.87252C0.0399512 0.838355 0.878307 0 1.91247 0H21.3867C22.4208 0 23.2592 0.838355 23.2592 1.87252C23.2592 2.90668 22.4208 3.74504 21.3867 3.74504H1.91247C0.878307 3.74504 0.0399512 2.90668 0.0399512 1.87252ZM0.039917 9.36268C0.039917 8.32851 0.878273 7.49016 1.91244 7.49016H21.3866C22.4208 7.49016 23.2592 8.32851 23.2592 9.36268C23.2592 10.3968 22.4208 11.2352 21.3866 11.2352H1.91244C0.878273 11.2352 0.039917 10.3968 0.039917 9.36268ZM1.91244 14.9801C0.878273 14.9801 0.039917 15.8185 0.039917 16.8527C0.039917 17.8868 0.878273 18.7252 1.91244 18.7252H21.3866C22.4208 18.7252 23.2592 17.8868 23.2592 16.8527C23.2592 15.8185 22.4208 14.9801 21.3866 14.9801H1.91244Z" fill="url(#paint0_linear)"/>
<defs>
<linearGradient id="paint0_linear" x1="23.2592" y1="-2.62359" x2="9.6939" y2="22.0735" gradientUnits="userSpaceOnUse">
<stop stop-color="#FFD646"/>
<stop offset="1" stop-color="#E8A900"/>
</linearGradient>
</defs>
</svg>
