<svg width="21" height="21" viewBox="0 0 21 21" fill="none" xmlns="http://www.w3.org/2000/svg">
<path fill-rule="evenodd" clip-rule="evenodd" d="M20.486 18.0042L15.9239 13.4422C15.8996 13.4179 15.8712 13.401 15.8458 13.3784C16.7752 11.9707 17.2696 10.3206 17.2674 8.63383C17.2674 3.86545 13.402 0 8.63372 0C3.86545 0 0 3.86545 0 8.63372C0 13.402 3.86539 17.2674 8.63365 17.2674C10.3205 17.2697 11.9706 16.7752 13.3782 15.8458C13.4008 15.8711 13.4177 15.8995 13.4419 15.9238L18.0042 20.486C18.3333 20.8151 18.7796 21 19.2451 21C19.7105 21 20.1569 20.8151 20.486 20.486C20.8151 20.1569 21 19.7105 21 19.2451C21 18.7796 20.8151 18.3333 20.486 18.0042ZM8.63372 14.2743C7.51808 14.2743 6.42749 13.9435 5.49986 13.3237C4.57222 12.7039 3.84922 11.823 3.42227 10.7923C2.99532 9.76155 2.8836 8.62737 3.10125 7.53317C3.31889 6.43896 3.85612 5.43387 4.645 4.645C5.43387 3.85612 6.43896 3.31889 7.53317 3.10125C8.62737 2.8836 9.76155 2.99532 10.7923 3.42227C11.823 3.84922 12.7039 4.57222 13.3237 5.49986C13.9435 6.42749 14.2743 7.51808 14.2743 8.63372C14.2743 10.1297 13.68 11.5644 12.6222 12.6222C11.5644 13.68 10.1297 14.2743 8.63372 14.2743Z" fill="url(#paint0_linear)"/>
<defs>
<linearGradient id="paint0_linear" x1="21" y1="-2.94231" x2="4.22567" y2="21.6864" gradientUnits="userSpaceOnUse">
<stop stop-color="#FFD646"/>
<stop offset="1" stop-color="#E8A900"/>
</linearGradient>
</defs>
</svg>
