<svg width="20" height="21" viewBox="0 0 20 21" fill="none" xmlns="http://www.w3.org/2000/svg">
<path fill-rule="evenodd" clip-rule="evenodd" d="M19.9351 8.88537C19.9053 8.60262 19.5779 8.39427 19.2952 8.39427C18.3799 8.39427 17.5689 7.85853 17.2266 7.02515C16.8769 6.16945 17.1001 5.17981 17.7847 4.55478C18.0004 4.36132 18.0228 4.02648 17.8442 3.80325C17.3754 3.20798 16.8397 2.67224 16.2593 2.20346C16.0286 2.01744 15.6938 2.0472 15.5003 2.26299C14.905 2.92523 13.8336 3.17078 13.0076 2.82105C12.1445 2.45645 11.6013 1.58587 11.6534 0.648317C11.6683 0.350682 11.4525 0.0976919 11.1623 0.0679284C10.4182 -0.0213622 9.65922 -0.0213622 8.91514 0.0604875C8.62494 0.090251 8.40915 0.343241 8.4166 0.633435C8.44636 1.56355 7.90317 2.41925 7.04747 2.76897C6.22898 3.10381 5.16493 2.85826 4.56966 2.20346C4.3762 1.98768 4.04136 1.95791 3.81813 2.13649C3.21542 2.60527 2.67224 3.14845 2.20346 3.73628C2.01744 3.96695 2.0472 4.30179 2.26299 4.49525C2.96243 5.12773 3.18566 6.1248 2.82105 6.98795C2.47877 7.80644 1.62307 8.34219 0.648317 8.34219C0.328359 8.33475 0.105133 8.54309 0.0679284 8.83329C-0.0213622 9.58481 -0.0213622 10.3512 0.0604875 11.1102C0.090251 11.3929 0.432532 11.6013 0.715285 11.6013C1.58587 11.579 2.41925 12.1147 2.76897 12.9704C3.11869 13.8261 2.89546 14.8158 2.2109 15.4408C1.99512 15.6342 1.97279 15.9691 2.15137 16.1923C2.61271 16.7876 3.14845 17.3233 3.73628 17.7921C3.96695 17.9781 4.30179 17.9484 4.49525 17.7326C5.09052 17.0703 6.16201 16.8248 6.98795 17.1745C7.85109 17.5391 8.39427 18.4097 8.34219 19.3472C8.3273 19.6449 8.54309 19.8979 8.83328 19.9351C9.21277 19.9797 9.5997 20.002 9.98662 20.002C10.3512 20.002 10.7158 19.9797 11.0879 19.9425C11.3781 19.9128 11.5939 19.6598 11.5864 19.3696C11.5492 18.4395 12.0998 17.5838 12.9555 17.234C13.7815 16.8992 14.8381 17.1447 15.4333 17.7995C15.6342 18.0153 15.9542 18.0377 16.1849 17.8591C16.7801 17.3903 17.3233 16.8546 17.7995 16.2593C17.9856 16.0286 17.9558 15.6938 17.74 15.5003C17.0406 14.8678 16.8173 13.8708 17.182 13.0076C17.5242 12.1966 18.3427 11.6534 19.2282 11.6534H19.3547C19.6449 11.6757 19.9053 11.4525 19.9425 11.1623C20.0169 10.4033 20.0244 9.6369 19.9351 8.88537ZM10.0164 13.3499C8.17849 13.3499 6.68287 11.8543 6.68287 10.0164C6.68287 8.17849 8.17849 6.68287 10.0164 6.68287C11.8543 6.68287 13.3499 8.17849 13.3499 10.0164C13.3499 11.8543 11.8543 13.3499 10.0164 13.3499Z" fill="url(#paint0_linear)"/>
<defs>
<linearGradient id="paint0_linear" x1="20.0002" y1="-2.80248" x2="4.02246" y2="20.6544" gradientUnits="userSpaceOnUse">
<stop stop-color="#FFD646"/>
<stop offset="1" stop-color="#E8A900"/>
</linearGradient>
</defs>
</svg>
