<svg width="33" height="27" viewBox="0 0 33 27" fill="none" xmlns="http://www.w3.org/2000/svg">
<path d="M19.2966 2.92216V11.1118C19.2966 11.8868 18.9888 12.63 18.4408 13.178C17.8928 13.7261 17.1495 14.0339 16.3745 14.0339H10.2276V19.2777C10.2276 19.9303 9.89184 20.0485 9.48519 19.5473L4.9601 14.0339H2.18453C1.30504 14.0339 0 12.7242 0 11.1118V2.92216C0 2.14715 0.307869 1.40389 0.85588 0.85588C1.40389 0.307869 2.14715 0 2.92216 0L16.3745 0C17.1495 0 17.8928 0.307869 18.4408 0.85588C18.9888 1.40389 19.2966 2.14715 19.2966 2.92216Z" fill="url(#paint0_linear)"/>
<path d="M9.4568 9.53709C9.28544 9.53874 9.1162 9.57513 8.95931 9.64405C8.80241 9.71298 8.66113 9.81301 8.544 9.93809C8.42687 10.0632 8.33633 10.2107 8.27785 10.3718C8.21937 10.5329 8.19417 10.7041 8.20377 10.8752C8.20377 11.2113 8.33728 11.5336 8.57493 11.7713C8.81257 12.0089 9.1349 12.1424 9.47098 12.1424C9.80707 12.1424 10.1294 12.0089 10.367 11.7713C10.6047 11.5336 10.7382 11.2113 10.7382 10.8752C10.7472 10.7019 10.7207 10.5286 10.6602 10.3659C10.5998 10.2032 10.5067 10.0546 10.3866 9.92927C10.2666 9.80392 10.1222 9.70446 9.96228 9.63702C9.80237 9.56957 9.63034 9.53557 9.4568 9.53709ZM12.3742 4.6952C12.3742 3.00715 11.159 2.24588 9.53718 2.24588C9.03308 2.25537 8.53748 2.37749 8.08668 2.6033C7.63589 2.82911 7.2413 3.15289 6.93182 3.55092L8.08556 4.61009C8.24603 4.41611 8.4447 4.25724 8.66922 4.14335C8.89374 4.02946 9.13929 3.96301 9.3906 3.94811C9.51422 3.93564 9.63908 3.95008 9.75659 3.99045C9.87411 4.03082 9.98148 4.09616 10.0713 4.18197C10.1612 4.26779 10.2314 4.37205 10.2771 4.48758C10.3229 4.6031 10.3431 4.72717 10.3363 4.85124C10.3363 5.92459 8.24632 6.7426 8.53476 8.70489H10.4025C10.2228 6.99793 12.3742 6.47308 12.3742 4.6952Z" fill="#F7F7F7"/>
<path opacity="0.2" d="M19.2966 5.56519V11.1116C19.2966 11.8866 18.9888 12.6299 18.4408 13.1779C17.8928 13.7259 17.1495 14.0338 16.3745 14.0338H12.0858V8.51099C12.0858 7.73473 12.3942 6.99026 12.9431 6.44136C13.492 5.89247 14.2364 5.5841 15.0127 5.5841L19.2966 5.56519Z" fill="black"/>
<path d="M15.9016 20.1854V25.434C15.9016 26.077 16.2326 26.1952 16.644 25.6987L21.1643 20.1854H29.6329C30.4084 20.1842 31.1516 19.8752 31.6995 19.3265C32.2474 18.7777 32.5551 18.034 32.5551 17.2585V9.07365C32.5557 8.68951 32.4806 8.30901 32.334 7.95394C32.1874 7.59886 31.9723 7.27616 31.7009 7.00431C31.4295 6.73247 31.1071 6.5168 30.7523 6.36965C30.3974 6.2225 30.0171 6.14676 29.6329 6.14676H15.6037C15.2196 6.14614 14.8391 6.22127 14.484 6.36784C14.1289 6.51441 13.8062 6.72956 13.5344 7.00097C13.2626 7.27238 13.0469 7.59473 12.8997 7.94957C12.7526 8.30441 12.6768 8.68478 12.6768 9.06892V17.2585C12.6768 18.8756 13.4003 20.1854 14.294 20.1854H15.9016Z" fill="url(#paint1_linear)"/>
<path d="M28.4745 12.2135H16.7575C16.6369 12.2224 16.5158 12.2063 16.4017 12.1662C16.2876 12.1262 16.183 12.063 16.0944 11.9807C16.0058 11.8984 15.9351 11.7987 15.8868 11.6878C15.8385 11.577 15.8136 11.4573 15.8136 11.3364C15.8136 11.2155 15.8385 11.0959 15.8868 10.985C15.9351 10.8742 16.0058 10.7745 16.0944 10.6922C16.183 10.6098 16.2876 10.5467 16.4017 10.5066C16.5158 10.4665 16.6369 10.4504 16.7575 10.4593H28.4745C28.696 10.4756 28.9031 10.5751 29.0543 10.7378C29.2055 10.9005 29.2895 11.1143 29.2895 11.3364C29.2895 11.5585 29.2055 11.7724 29.0543 11.9351C28.9031 12.0978 28.696 12.1973 28.4745 12.2135Z" fill="#F7F7F7"/>
<path d="M28.4745 16.0768H16.7575C16.6369 16.0856 16.5158 16.0695 16.4017 16.0295C16.2876 15.9894 16.183 15.9262 16.0944 15.8439C16.0058 15.7616 15.9351 15.6619 15.8868 15.551C15.8385 15.4402 15.8136 15.3206 15.8136 15.1996C15.8136 15.0787 15.8385 14.9591 15.8868 14.8482C15.9351 14.7374 16.0058 14.6377 16.0944 14.5554C16.183 14.4731 16.2876 14.4099 16.4017 14.3698C16.5158 14.3298 16.6369 14.3137 16.7575 14.3225H28.4745C28.696 14.3388 28.9031 14.4383 29.0543 14.601C29.2055 14.7637 29.2895 14.9775 29.2895 15.1996C29.2895 15.4217 29.2055 15.6356 29.0543 15.7983C28.9031 15.961 28.696 16.0605 28.4745 16.0768Z" fill="#F7F7F7"/>
<defs>
<linearGradient id="paint0_linear" x1="9.64832" y1="0" x2="9.64832" y2="19.8573" gradientUnits="userSpaceOnUse">
<stop stop-color="#C74331"/>
<stop offset="1" stop-color="#F2B355"/>
</linearGradient>
<linearGradient id="paint1_linear" x1="22.616" y1="6.14676" x2="22.616" y2="26.0057" gradientUnits="userSpaceOnUse">
<stop stop-color="#348219"/>
<stop offset="1" stop-color="#7FD37D"/>
</linearGradient>
</defs>
</svg>
