<svg width="21" height="24" viewBox="0 0 21 24" fill="none" xmlns="http://www.w3.org/2000/svg">
<path d="M2.77504 11.3867C2.77504 8.82863 4.85593 6.74722 7.41557 6.74722C9.97204 6.74722 12.0535 8.82863 12.0535 11.3867C12.0535 12.9414 11.285 14.3197 10.1085 15.1619C9.89831 15.5922 9.77928 16.0757 9.77928 16.5876C9.77928 17.1917 9.94413 17.7589 10.2317 18.2435C12.9262 17.1322 14.828 14.4783 14.828 11.3872C14.828 8.00755 12.5549 5.14929 9.45801 4.26079L10.9732 2.88828V0.9833C10.9722 0.431872 10.5261 0 9.9752 0H4.85383C4.30293 0 3.85157 0.431872 3.85157 0.9833V2.88775L5.36997 4.25974C2.27102 5.14929 0 8.00702 0 11.3867C0 14.3887 1.7949 16.9794 4.36823 18.1444C4.27712 17.6394 4.23024 17.119 4.23024 16.5876C4.23024 16.0125 4.28607 15.4489 4.39299 14.9038C3.40179 14.0527 2.77504 12.7908 2.77504 11.3867Z" fill="url(#paint0_linear)"/>
<path d="M16.0846 9.83405C16.1752 10.3381 16.2226 10.8563 16.2226 11.3867C16.2226 11.9644 16.1668 12.529 16.0588 13.0763C17.0442 13.9279 17.6699 15.1856 17.6699 16.5871C17.6699 19.1451 15.589 21.2276 13.031 21.2276C10.4719 21.2276 8.39096 19.1456 8.39096 16.5871C8.39096 15.0271 9.1657 13.644 10.3507 12.8013C10.5593 12.3737 10.6757 11.8928 10.6757 11.3856C10.6757 10.78 10.5087 10.2133 10.2206 9.72766C7.52248 10.8374 5.6175 13.4934 5.6175 16.5865C5.6175 20.674 8.94292 23.9995 13.031 23.9995C17.1174 23.9995 20.4428 20.674 20.4428 16.5865C20.4428 13.5887 18.6527 11.0001 16.0846 9.83405Z" fill="url(#paint1_linear)"/>
<defs>
<linearGradient id="paint0_linear" x1="14.828" y1="-2.55609" x2="-0.590971" y2="15.8442" gradientUnits="userSpaceOnUse">
<stop stop-color="#FFD646"/>
<stop offset="1" stop-color="#E8A900"/>
</linearGradient>
<linearGradient id="paint1_linear" x1="20.4428" y1="7.72804" x2="9.20759" y2="24.8638" gradientUnits="userSpaceOnUse">
<stop stop-color="#FFD646"/>
<stop offset="1" stop-color="#E8A900"/>
</linearGradient>
</defs>
</svg>
